<?xml version="1.0" encoding="UTF-8"?>
<svg xmlns="http://www.w3.org/2000/svg" xmlns:xlink="http://www.w3.org/1999/xlink" width="360pt" height="360pt" viewBox="0 0 360 360" version="1.1">
<g id="surface12">
<path style=" stroke:none;fill-rule:evenodd;fill:rgb(66.498817%,77.898833%,94.999619%);fill-opacity:1;" d="M 287.808594 313.238281 L 294.378906 307.652344 L 301.160156 300.871094 L 291.890625 291.605469 L 254.425781 254.140625 L 253.722656 253.433594 L 241.351562 241.0625 L 240.328125 240.042969 L 236.941406 243.433594 L 233.65625 246.226562 L 227.367188 250.851562 L 218.972656 255.800781 L 217.792969 256.394531 L 208.21875 260.445312 L 198.648438 263.21875 L 189.074219 264.839844 L 179.5 265.371094 L 169.925781 264.839844 L 160.351562 263.21875 L 150.78125 260.445312 L 141.207031 256.394531 L 140.027344 255.800781 L 131.632812 250.851562 L 125.34375 246.226562 L 122.058594 243.433594 L 115.28125 236.652344 L 112.488281 233.367188 L 107.859375 227.078125 L 102.914062 218.683594 L 102.316406 217.507812 L 98.265625 207.933594 L 95.496094 198.359375 L 93.875 188.785156 L 93.339844 179.210938 L 93.875 169.640625 L 95.496094 160.066406 L 98.265625 150.492188 L 102.316406 140.917969 L 102.914062 139.742188 L 107.859375 131.347656 L 112.488281 125.058594 L 115.28125 121.773438 L 122.058594 114.992188 L 125.34375 112.199219 L 131.632812 107.574219 L 140.027344 102.625 L 141.207031 102.03125 L 150.78125 97.980469 L 160.351562 95.207031 L 169.925781 93.585938 L 179.5 93.054688 L 189.074219 93.585938 L 198.648438 95.207031 L 208.21875 97.980469 L 217.792969 102.03125 L 218.972656 102.625 L 227.367188 107.574219 L 233.65625 112.199219 L 236.941406 114.992188 L 240.328125 118.382812 L 241.351562 117.363281 L 253.722656 104.992188 L 254.425781 104.285156 L 291.890625 66.820312 L 301.160156 57.554688 L 294.378906 50.773438 L 287.808594 45.1875 L 275.234375 35.933594 L 258.445312 26.039062 L 256.085938 24.847656 L 236.941406 16.746094 L 217.792969 11.203125 L 198.648438 7.960938 L 179.5 6.894531 L 160.351562 7.960938 L 141.207031 11.203125 L 122.058594 16.746094 L 102.914062 24.847656 L 100.554688 26.039062 L 83.765625 35.933594 L 71.191406 45.1875 L 64.621094 50.773438 L 51.058594 64.332031 L 45.472656 70.902344 L 36.21875 83.480469 L 26.328125 100.269531 L 25.132812 102.625 L 17.035156 121.773438 L 11.488281 140.917969 L 8.246094 160.066406 L 7.179688 179.210938 L 8.246094 198.359375 L 11.488281 217.507812 L 17.035156 236.652344 L 25.132812 255.800781 L 26.328125 258.15625 L 36.21875 274.945312 L 45.472656 287.523438 L 51.058594 294.09375 L 64.621094 307.652344 L 71.191406 313.238281 L 83.765625 322.492188 L 100.554688 332.386719 L 102.914062 333.578125 L 122.058594 341.675781 L 141.207031 347.222656 L 160.351562 350.464844 L 179.5 351.53125 L 198.648438 350.464844 L 217.792969 347.222656 L 236.941406 341.675781 L 256.085938 333.578125 L 258.445312 332.386719 L 275.234375 322.492188 Z M 287.808594 313.238281 "/>
<path style=" stroke:none;fill-rule:evenodd;fill:rgb(66.498817%,77.898833%,94.999619%);fill-opacity:1;" d="M 347.035156 159.476562 L 344.558594 155.28125 L 342.246094 152.136719 L 340.851562 150.492188 L 337.460938 147.101562 L 335.816406 145.707031 L 332.671875 143.394531 L 328.476562 140.917969 L 327.886719 140.621094 L 323.101562 138.597656 L 318.3125 137.210938 L 313.527344 136.398438 L 308.738281 136.132812 L 303.953125 136.398438 L 299.167969 137.210938 L 294.378906 138.597656 L 289.59375 140.621094 L 289.003906 140.917969 L 284.808594 143.394531 L 281.664062 145.707031 L 280.019531 147.101562 L 276.628906 150.492188 L 275.234375 152.136719 L 272.917969 155.28125 L 270.445312 159.476562 L 270.148438 160.066406 L 268.125 164.851562 L 266.738281 169.640625 L 265.925781 174.425781 L 265.660156 179.210938 L 265.925781 184 L 266.738281 188.785156 L 268.125 193.574219 L 270.148438 198.359375 L 270.445312 198.949219 L 272.917969 203.144531 L 275.234375 206.289062 L 276.628906 207.933594 L 280.019531 211.324219 L 281.664062 212.71875 L 284.808594 215.03125 L 289.003906 217.507812 L 289.59375 217.804688 L 294.378906 219.828125 L 299.167969 221.214844 L 303.953125 222.027344 L 308.738281 222.292969 L 313.527344 222.027344 L 318.3125 221.214844 L 323.101562 219.828125 L 327.886719 217.804688 L 328.476562 217.507812 L 332.671875 215.03125 L 335.816406 212.71875 L 337.460938 211.324219 L 340.851562 207.933594 L 342.246094 206.289062 L 344.558594 203.144531 L 347.035156 198.949219 L 347.332031 198.359375 L 349.355469 193.574219 L 350.742188 188.785156 L 351.554688 184 L 351.820312 179.210938 L 351.554688 174.425781 L 350.742188 169.640625 L 349.355469 164.851562 L 347.332031 160.066406 Z M 347.035156 159.476562 "/>
</g>
</svg>
