<?xml version="1.0" encoding="UTF-8"?>
<svg xmlns="http://www.w3.org/2000/svg" xmlns:xlink="http://www.w3.org/1999/xlink" width="360pt" height="360pt" viewBox="0 0 360 360" version="1.1">
  <g id="surface12">
    <path style=" stroke:none;fill-rule:evenodd;fill:rgb(55.555047%,55.555047%,100%);fill-opacity:1;" d="M 281.824219 78.175781 L 280.597656 76.964844 L 279.359375 75.769531 L 278.105469 74.589844 L 276.839844 73.425781 L 275.558594 72.277344 L 274.265625 71.140625 L 272.957031 70.023438 L 271.640625 68.921875 L 270.308594 67.835938 L 268.964844 66.769531 L 267.609375 65.71875 L 266.242188 64.683594 L 264.867188 63.664062 L 263.476562 62.664062 L 262.078125 61.683594 L 260.671875 60.71875 L 259.253906 59.769531 L 257.824219 58.84375 L 256.390625 57.929688 L 254.941406 57.039062 L 253.488281 56.164062 L 252.027344 55.308594 L 250.558594 54.472656 L 249.082031 53.652344 L 247.597656 52.851562 L 246.105469 52.070312 L 244.609375 51.308594 L 243.109375 50.566406 L 241.597656 49.839844 L 240.085938 49.132812 L 238.566406 48.449219 L 237.042969 47.78125 L 235.515625 47.132812 L 233.984375 46.503906 L 232.449219 45.890625 L 230.914062 45.300781 L 229.371094 44.726562 L 227.828125 44.175781 L 226.28125 43.640625 L 224.734375 43.125 L 223.1875 42.628906 L 221.636719 42.152344 L 220.085938 41.691406 L 218.535156 41.25 L 216.980469 40.828125 L 215.429688 40.425781 L 213.878906 40.042969 L 212.328125 39.675781 L 210.777344 39.328125 L 209.230469 38.996094 L 207.683594 38.6875 L 206.136719 38.390625 L 204.59375 38.117188 L 203.054688 37.859375 L 201.515625 37.617188 L 199.980469 37.394531 L 198.449219 37.1875 L 196.921875 36.996094 L 195.398438 36.824219 L 193.875 36.671875 L 192.359375 36.53125 L 190.847656 36.410156 L 189.339844 36.304688 L 187.839844 36.214844 L 186.339844 36.140625 L 184.847656 36.082031 L 183.363281 36.039062 L 181.882812 36.011719 L 180.40625 36 L 178.9375 36.003906 L 177.476562 36.023438 L 176.023438 36.054688 L 174.574219 36.101562 L 173.132812 36.164062 L 171.695312 36.238281 L 170.269531 36.328125 L 168.847656 36.433594 L 167.433594 36.550781 L 166.03125 36.679688 L 164.632812 36.824219 L 163.242188 36.976562 L 161.863281 37.148438 L 160.488281 37.328125 L 159.125 37.519531 L 157.769531 37.726562 L 156.421875 37.945312 L 155.082031 38.171875 L 153.75 38.414062 L 152.429688 38.664062 L 151.117188 38.925781 L 149.8125 39.199219 L 148.519531 39.484375 L 147.234375 39.777344 L 145.957031 40.082031 L 144.691406 40.394531 L 143.433594 40.71875 L 142.183594 41.054688 L 140.945312 41.398438 L 139.714844 41.75 L 138.496094 42.109375 L 137.289062 42.480469 L 136.085938 42.859375 L 134.898438 43.246094 L 133.714844 43.640625 L 132.542969 44.042969 L 131.382812 44.453125 L 130.230469 44.875 L 129.089844 45.300781 L 127.957031 45.734375 L 126.835938 46.171875 L 125.722656 46.621094 L 124.621094 47.074219 L 123.53125 47.535156 L 122.445312 48 L 121.375 48.472656 L 120.3125 48.953125 L 119.257812 49.4375 L 118.214844 49.929688 L 117.179688 50.425781 L 116.15625 50.925781 L 115.144531 51.433594 L 114.140625 51.945312 L 113.144531 52.460938 L 112.160156 52.980469 L 111.183594 53.507812 L 110.21875 54.039062 L 109.261719 54.570312 L 108.316406 55.109375 L 107.378906 55.652344 L 106.449219 56.199219 L 105.53125 56.75 L 104.625 57.304688 L 103.722656 57.859375 L 102.835938 58.421875 L 101.953125 58.984375 L 101.082031 59.550781 L 100.21875 60.121094 L 99.367188 60.691406 L 98.523438 61.269531 L 97.6875 61.84375 L 96.859375 62.425781 L 96.042969 63.007812 L 95.234375 63.59375 L 94.433594 64.179688 L 93.644531 64.765625 L 92.859375 65.359375 L 92.085938 65.949219 L 91.320312 66.542969 L 90.566406 67.140625 L 89.816406 67.738281 L 89.078125 68.335938 L 88.347656 68.933594 L 87.621094 69.535156 L 86.90625 70.136719 L 86.199219 70.738281 L 85.5 71.34375 L 84.8125 71.949219 L 84.128906 72.554688 L 83.453125 73.160156 L 82.785156 73.765625 L 82.125 74.375 L 81.476562 74.980469 L 80.832031 75.589844 L 80.195312 76.199219 L 79.566406 76.808594 L 78.941406 77.414062 L 78.328125 78.023438 L 77.265625 79.09375 L 76.066406 80.328125 L 74.882812 81.578125 L 73.714844 82.84375 L 72.5625 84.121094 L 71.425781 85.410156 L 70.300781 86.714844 L 69.195312 88.027344 L 68.105469 89.359375 L 67.035156 90.699219 L 65.980469 92.050781 L 64.941406 93.414062 L 63.917969 94.789062 L 62.914062 96.171875 L 61.925781 97.570312 L 60.957031 98.976562 L 60.007812 100.390625 L 59.074219 101.816406 L 58.15625 103.25 L 57.261719 104.695312 L 56.382812 106.144531 L 55.519531 107.605469 L 54.679688 109.074219 L 53.855469 110.546875 L 53.050781 112.03125 L 52.265625 113.519531 L 51.496094 115.015625 L 50.75 116.515625 L 50.019531 118.023438 L 49.308594 119.535156 L 48.617188 121.054688 L 47.945312 122.574219 L 47.292969 124.101562 L 46.65625 125.632812 L 46.042969 127.164062 L 45.445312 128.703125 L 44.871094 130.242188 L 44.3125 131.785156 L 43.773438 133.332031 L 43.253906 134.878906 L 42.75 136.425781 L 42.269531 137.976562 L 41.804688 139.527344 L 41.359375 141.078125 L 40.933594 142.628906 L 40.527344 144.183594 L 40.136719 145.734375 L 39.765625 147.285156 L 39.414062 148.835938 L 39.078125 150.382812 L 38.761719 151.929688 L 38.464844 153.476562 L 38.183594 155.019531 L 37.921875 156.5625 L 37.675781 158.097656 L 37.449219 159.636719 L 37.238281 161.167969 L 37.042969 162.695312 L 36.867188 164.222656 L 36.707031 165.746094 L 36.566406 167.261719 L 36.4375 168.773438 L 36.328125 170.28125 L 36.234375 171.785156 L 36.15625 173.285156 L 36.09375 174.777344 L 36.046875 176.265625 L 36.019531 177.75 L 36.003906 179.222656 L 36 180.695312 L 36.015625 182.15625 L 36.046875 183.613281 L 36.089844 185.066406 L 36.148438 186.507812 L 36.21875 187.945312 L 36.304688 189.375 L 36.40625 190.796875 L 36.519531 192.210938 L 36.644531 193.617188 L 36.785156 195.019531 L 36.9375 196.410156 L 37.101562 197.792969 L 37.28125 199.167969 L 37.472656 200.535156 L 37.675781 201.894531 L 37.886719 203.242188 L 38.113281 204.585938 L 38.351562 205.917969 L 38.601562 207.242188 L 38.859375 208.554688 L 39.128906 209.863281 L 39.410156 211.160156 L 39.703125 212.445312 L 40.003906 213.726562 L 40.316406 214.996094 L 40.636719 216.253906 L 40.96875 217.503906 L 41.308594 218.746094 L 41.660156 219.976562 L 42.019531 221.199219 L 42.386719 222.410156 L 42.761719 223.613281 L 43.148438 224.804688 L 43.542969 225.988281 L 43.941406 227.164062 L 44.351562 228.328125 L 44.769531 229.480469 L 45.191406 230.625 L 45.625 231.757812 L 46.0625 232.882812 L 46.507812 234 L 46.960938 235.101562 L 47.417969 236.199219 L 47.882812 237.285156 L 48.355469 238.359375 L 48.832031 239.425781 L 49.316406 240.480469 L 49.804688 241.527344 L 50.300781 242.5625 L 50.800781 243.585938 L 51.304688 244.605469 L 51.816406 245.609375 L 52.332031 246.609375 L 52.851562 247.59375 L 53.375 248.574219 L 53.90625 249.542969 L 54.4375 250.5 L 54.976562 251.449219 L 55.515625 252.386719 L 56.0625 253.316406 L 56.613281 254.238281 L 57.164062 255.148438 L 57.722656 256.050781 L 58.28125 256.945312 L 58.84375 257.828125 L 59.410156 258.699219 L 59.976562 259.566406 L 60.550781 260.421875 L 61.125 261.269531 L 61.699219 262.105469 L 62.28125 262.933594 L 62.863281 263.753906 L 63.445312 264.566406 L 64.03125 265.367188 L 64.621094 266.160156 L 65.210938 266.945312 L 65.800781 267.71875 L 66.394531 268.488281 L 66.992188 269.246094 L 67.585938 269.996094 L 68.183594 270.738281 L 68.785156 271.472656 L 69.386719 272.195312 L 69.988281 272.914062 L 70.589844 273.625 L 71.191406 274.324219 L 71.796875 275.015625 L 72.402344 275.703125 L 73.007812 276.378906 L 73.617188 277.046875 L 74.222656 277.710938 L 74.828125 278.363281 L 75.4375 279.007812 L 76.046875 279.648438 L 76.65625 280.277344 L 77.261719 280.902344 L 77.871094 281.519531 L 78.789062 282.429688 L 80.019531 283.632812 L 81.265625 284.820312 L 82.527344 285.992188 L 83.800781 287.152344 L 85.085938 288.292969 L 86.386719 289.417969 L 87.699219 290.527344 L 89.023438 291.621094 L 90.363281 292.699219 L 91.710938 293.757812 L 93.070312 294.800781 L 94.445312 295.828125 L 95.828125 296.835938 L 97.21875 297.828125 L 98.625 298.800781 L 100.035156 299.757812 L 101.460938 300.695312 L 102.890625 301.617188 L 104.332031 302.515625 L 105.78125 303.402344 L 107.242188 304.265625 L 108.707031 305.113281 L 110.179688 305.941406 L 111.660156 306.75 L 113.148438 307.539062 L 114.640625 308.3125 L 116.140625 309.066406 L 117.644531 309.800781 L 119.15625 310.515625 L 120.671875 311.210938 L 122.195312 311.886719 L 123.71875 312.546875 L 125.25 313.183594 L 126.78125 313.804688 L 128.316406 314.40625 L 129.855469 314.988281 L 131.398438 315.550781 L 132.945312 316.09375 L 134.492188 316.621094 L 136.039062 317.125 L 137.589844 317.613281 L 139.140625 318.082031 L 140.691406 318.53125 L 142.242188 318.960938 L 143.792969 319.375 L 145.34375 319.769531 L 146.898438 320.144531 L 148.445312 320.5 L 149.996094 320.839844 L 151.542969 321.160156 L 153.089844 321.464844 L 154.632812 321.75 L 156.175781 322.015625 L 157.714844 322.265625 L 159.25 322.496094 L 160.785156 322.710938 L 162.316406 322.910156 L 163.839844 323.089844 L 165.363281 323.253906 L 166.882812 323.402344 L 168.398438 323.53125 L 169.90625 323.644531 L 171.410156 323.742188 L 172.910156 323.824219 L 174.40625 323.890625 L 175.894531 323.941406 L 177.378906 323.976562 L 178.855469 323.996094 L 180.328125 324 L 181.792969 323.988281 L 183.25 323.964844 L 184.703125 323.921875 L 186.148438 323.867188 L 187.585938 323.800781 L 189.019531 323.71875 L 190.441406 323.621094 L 191.859375 323.511719 L 193.269531 323.386719 L 194.667969 323.25 L 196.0625 323.101562 L 197.449219 322.9375 L 198.824219 322.765625 L 200.195312 322.578125 L 201.554688 322.378906 L 202.90625 322.167969 L 204.25 321.945312 L 205.585938 321.707031 L 206.910156 321.464844 L 208.226562 321.207031 L 209.535156 320.9375 L 210.835938 320.660156 L 212.125 320.371094 L 213.40625 320.070312 L 214.679688 319.761719 L 215.941406 319.441406 L 217.191406 319.113281 L 218.4375 318.777344 L 219.671875 318.429688 L 220.894531 318.070312 L 222.109375 317.707031 L 223.3125 317.332031 L 224.507812 316.949219 L 225.695312 316.558594 L 226.871094 316.160156 L 228.035156 315.75 L 229.191406 315.335938 L 230.339844 314.914062 L 231.476562 314.484375 L 232.605469 314.046875 L 233.722656 313.605469 L 234.828125 313.152344 L 235.925781 312.695312 L 237.011719 312.234375 L 238.089844 311.761719 L 239.160156 311.285156 L 240.214844 310.804688 L 241.265625 310.316406 L 242.304688 309.824219 L 243.332031 309.324219 L 244.351562 308.820312 L 245.359375 308.3125 L 246.359375 307.796875 L 247.351562 307.28125 L 248.328125 306.753906 L 249.300781 306.226562 L 250.261719 305.695312 L 251.210938 305.160156 L 252.15625 304.617188 L 253.085938 304.074219 L 254.007812 303.527344 L 254.921875 302.972656 L 255.828125 302.417969 L 256.722656 301.859375 L 257.605469 301.296875 L 258.484375 300.734375 L 259.351562 300.164062 L 260.207031 299.59375 L 261.058594 299.019531 L 261.898438 298.445312 L 262.726562 297.863281 L 263.550781 297.285156 L 264.363281 296.699219 L 265.167969 296.113281 L 265.960938 295.527344 L 266.75 294.9375 L 267.527344 294.347656 L 268.296875 293.753906 L 269.058594 293.160156 L 269.808594 292.5625 L 270.554688 291.964844 L 271.289062 291.367188 L 272.015625 290.765625 L 272.734375 290.164062 L 273.445312 289.5625 L 274.148438 288.957031 L 274.84375 288.355469 L 275.53125 287.75 L 276.210938 287.144531 L 276.882812 286.535156 L 277.542969 285.929688 L 278.199219 285.320312 L 278.847656 284.714844 L 279.488281 284.105469 L 280.121094 283.496094 L 280.746094 282.890625 L 281.363281 282.28125 L 281.746094 281.746094 L 230.910156 230.910156 L 230.605469 231.214844 L 230.296875 231.519531 L 229.664062 232.128906 L 229.34375 232.433594 L 229.019531 232.738281 L 228.691406 233.039062 L 228.019531 233.648438 L 227.679688 233.949219 L 227.335938 234.253906 L 226.988281 234.554688 L 226.636719 234.855469 L 225.917969 235.457031 L 225.554688 235.757812 L 225.183594 236.058594 L 224.8125 236.355469 L 224.433594 236.652344 L 223.667969 237.246094 L 223.277344 237.542969 L 222.882812 237.835938 L 222.484375 238.128906 L 222.082031 238.421875 L 221.671875 238.714844 L 221.261719 239.003906 L 220.84375 239.292969 L 220.421875 239.582031 L 219.996094 239.867188 L 219.566406 240.152344 L 219.132812 240.4375 L 218.695312 240.71875 L 218.25 241 L 217.800781 241.277344 L 217.347656 241.554688 L 216.890625 241.832031 L 215.960938 242.378906 L 215.488281 242.648438 L 215.011719 242.914062 L 214.042969 243.445312 L 213.550781 243.703125 L 213.054688 243.964844 L 212.554688 244.21875 L 211.539062 244.726562 L 211.023438 244.972656 L 209.976562 245.464844 L 209.445312 245.703125 L 208.910156 245.941406 L 208.371094 246.175781 L 207.824219 246.40625 L 207.277344 246.632812 L 206.722656 246.859375 L 205.597656 247.296875 L 205.027344 247.511719 L 204.453125 247.71875 L 203.875 247.925781 L 203.289062 248.128906 L 202.699219 248.328125 L 202.105469 248.523438 L 201.507812 248.710938 L 200.902344 248.898438 L 200.292969 249.082031 L 199.679688 249.257812 L 199.0625 249.429688 L 198.441406 249.597656 L 197.8125 249.761719 L 197.179688 249.921875 L 196.542969 250.074219 L 195.902344 250.222656 L 194.605469 250.503906 L 193.949219 250.636719 L 193.289062 250.761719 L 192.625 250.882812 L 191.957031 251 L 191.285156 251.109375 L 190.609375 251.214844 L 189.925781 251.3125 L 189.242188 251.40625 L 188.550781 251.492188 L 187.859375 251.570312 L 187.160156 251.644531 L 186.457031 251.710938 L 185.753906 251.769531 L 185.042969 251.824219 L 184.332031 251.871094 L 183.613281 251.910156 L 182.894531 251.941406 L 182.171875 251.96875 L 181.445312 251.984375 L 180.714844 251.996094 L 179.980469 252 L 179.242188 251.996094 L 178.503906 251.984375 L 177.761719 251.964844 L 177.015625 251.9375 L 176.269531 251.902344 L 175.519531 251.859375 L 174.765625 251.808594 L 174.007812 251.75 L 173.25 251.683594 L 172.492188 251.609375 L 171.730469 251.523438 L 170.964844 251.429688 L 170.199219 251.328125 L 169.433594 251.21875 L 168.664062 251.101562 L 167.894531 250.976562 L 167.125 250.839844 L 166.351562 250.695312 L 165.578125 250.539062 L 164.804688 250.378906 L 164.03125 250.207031 L 163.253906 250.027344 L 162.480469 249.835938 L 161.703125 249.636719 L 160.925781 249.429688 L 160.152344 249.210938 L 159.375 248.984375 L 158.601562 248.746094 L 157.824219 248.5 L 157.050781 248.246094 L 156.277344 247.980469 L 155.507812 247.707031 L 154.734375 247.421875 L 153.964844 247.128906 L 153.199219 246.824219 L 152.433594 246.511719 L 151.667969 246.191406 L 150.90625 245.859375 L 150.148438 245.519531 L 149.390625 245.167969 L 148.632812 244.808594 L 147.882812 244.441406 L 147.132812 244.0625 L 146.386719 243.671875 L 145.644531 243.273438 L 144.90625 242.867188 L 144.167969 242.453125 L 143.4375 242.027344 L 142.710938 241.589844 L 141.984375 241.148438 L 141.265625 240.695312 L 140.550781 240.230469 L 139.839844 239.761719 L 139.136719 239.28125 L 138.433594 238.789062 L 137.738281 238.292969 L 137.050781 237.785156 L 136.363281 237.269531 L 135.6875 236.746094 L 135.011719 236.214844 L 134.347656 235.675781 L 133.683594 235.125 L 133.03125 234.570312 L 132.382812 234.003906 L 131.738281 233.433594 L 131.105469 232.851562 L 130.476562 232.261719 L 129.855469 231.667969 L 129.242188 231.0625 L 128.859375 230.683594 L 128.554688 230.375 L 128.25 230.0625 L 127.945312 229.746094 L 127.644531 229.425781 L 127.339844 229.101562 L 127.035156 228.773438 L 126.730469 228.441406 L 126.429688 228.105469 L 126.125 227.765625 L 125.824219 227.421875 L 125.519531 227.074219 L 125.21875 226.722656 L 124.917969 226.367188 L 124.617188 226.007812 L 124.316406 225.644531 L 124.019531 225.277344 L 123.71875 224.90625 L 123.125 224.148438 L 122.53125 223.375 L 122.238281 222.980469 L 121.941406 222.582031 L 121.648438 222.179688 L 121.359375 221.773438 L 121.066406 221.363281 L 120.777344 220.949219 L 120.488281 220.527344 L 120.203125 220.105469 L 119.917969 219.675781 L 119.632812 219.242188 L 119.351562 218.804688 L 118.789062 217.914062 L 118.511719 217.460938 L 118.238281 217.003906 L 117.964844 216.542969 L 117.691406 216.078125 L 117.421875 215.605469 L 117.152344 215.128906 L 116.886719 214.648438 L 116.621094 214.164062 L 116.359375 213.675781 L 116.101562 213.179688 L 115.84375 212.679688 L 115.589844 212.175781 L 115.335938 211.667969 L 115.089844 211.152344 L 114.839844 210.632812 L 114.597656 210.109375 L 114.355469 209.578125 L 114.117188 209.046875 L 113.882812 208.507812 L 113.421875 207.414062 L 113.199219 206.859375 L 112.976562 206.300781 L 112.757812 205.738281 L 112.542969 205.171875 L 112.332031 204.597656 L 112.125 204.019531 L 111.921875 203.433594 L 111.722656 202.847656 L 111.527344 202.253906 L 111.335938 201.65625 L 111.148438 201.054688 L 110.964844 200.445312 L 110.785156 199.835938 L 110.613281 199.21875 L 110.441406 198.597656 L 110.277344 197.96875 L 110.117188 197.339844 L 109.964844 196.703125 L 109.816406 196.0625 L 109.671875 195.417969 L 109.53125 194.769531 L 109.398438 194.113281 L 109.269531 193.457031 L 109.144531 192.792969 L 109.027344 192.125 L 108.917969 191.453125 L 108.8125 190.777344 L 108.710938 190.097656 L 108.617188 189.414062 L 108.53125 188.722656 L 108.449219 188.03125 L 108.375 187.335938 L 108.304688 186.632812 L 108.246094 185.929688 L 108.191406 185.222656 L 108.140625 184.507812 L 108.101562 183.792969 L 108.066406 183.074219 L 108.039062 182.351562 L 108.019531 181.625 L 108.003906 180.894531 L 108 180.164062 L 108.003906 179.429688 L 108.011719 178.6875 L 108.027344 177.949219 L 108.054688 177.203125 L 108.085938 176.457031 L 108.128906 175.707031 L 108.175781 174.953125 L 108.234375 174.199219 L 108.300781 173.441406 L 108.371094 172.683594 L 108.453125 171.921875 L 108.546875 171.15625 L 108.644531 170.390625 L 108.75 169.625 L 108.867188 168.859375 L 108.992188 168.089844 L 109.125 167.316406 L 109.269531 166.546875 L 109.417969 165.773438 L 109.582031 165 L 109.75 164.222656 L 109.929688 163.449219 L 110.117188 162.671875 L 110.3125 161.898438 L 110.519531 161.121094 L 110.734375 160.34375 L 110.960938 159.570312 L 111.195312 158.792969 L 111.4375 158.019531 L 111.691406 157.246094 L 111.953125 156.472656 L 112.226562 155.699219 L 112.507812 154.929688 L 112.796875 154.160156 L 113.097656 153.390625 L 113.40625 152.625 L 113.726562 151.859375 L 114.054688 151.097656 L 114.394531 150.335938 L 114.742188 149.578125 L 115.101562 148.824219 L 115.46875 148.070312 L 115.84375 147.320312 L 116.230469 146.574219 L 116.625 145.828125 L 117.03125 145.089844 L 117.445312 144.351562 L 117.867188 143.621094 L 118.300781 142.890625 L 118.742188 142.167969 L 119.191406 141.445312 L 119.652344 140.730469 L 120.121094 140.019531 L 120.597656 139.3125 L 121.085938 138.609375 L 121.582031 137.914062 L 122.085938 137.222656 L 122.597656 136.535156 L 123.121094 135.855469 L 123.652344 135.179688 L 124.1875 134.511719 L 124.734375 133.847656 L 125.289062 133.191406 L 125.851562 132.542969 L 126.425781 131.898438 L 127.003906 131.261719 L 127.589844 130.632812 L 128.183594 130.007812 L 128.785156 129.394531 L 129.242188 128.9375 L 129.859375 128.328125 L 130.175781 128.023438 L 130.496094 127.71875 L 131.144531 127.109375 L 131.476562 126.808594 L 131.8125 126.503906 L 132.148438 126.203125 L 132.492188 125.898438 L 132.839844 125.597656 L 133.1875 125.292969 L 133.542969 124.992188 L 133.902344 124.691406 L 134.265625 124.390625 L 134.628906 124.09375 L 135 123.792969 L 135.375 123.496094 L 136.140625 122.902344 L 136.527344 122.605469 L 136.921875 122.308594 L 137.316406 122.015625 L 137.71875 121.722656 L 138.125 121.429688 L 138.53125 121.140625 L 138.945312 120.851562 L 139.789062 120.273438 L 140.648438 119.703125 L 141.085938 119.421875 L 141.527344 119.140625 L 141.972656 118.859375 L 142.878906 118.304688 L 143.339844 118.03125 L 143.804688 117.757812 L 144.75 117.21875 L 145.230469 116.953125 L 145.714844 116.6875 L 146.203125 116.425781 L 146.695312 116.164062 L 147.195312 115.90625 L 147.699219 115.652344 L 148.207031 115.398438 L 148.71875 115.148438 L 149.238281 114.902344 L 149.761719 114.65625 L 150.289062 114.417969 L 150.820312 114.179688 L 151.359375 113.941406 L 151.902344 113.710938 L 152.449219 113.480469 L 153 113.253906 L 153.558594 113.03125 L 154.121094 112.8125 L 154.6875 112.597656 L 155.257812 112.382812 L 155.835938 112.175781 L 156.417969 111.972656 L 157.003906 111.769531 L 157.597656 111.574219 L 158.191406 111.382812 L 158.792969 111.195312 L 159.402344 111.007812 L 160.011719 110.832031 L 160.628906 110.65625 L 161.246094 110.484375 L 161.871094 110.320312 L 162.503906 110.160156 L 163.136719 110.003906 L 163.777344 109.851562 L 164.421875 109.707031 L 165.070312 109.566406 L 165.722656 109.429688 L 166.378906 109.300781 L 167.042969 109.175781 L 167.707031 109.058594 L 168.378906 108.945312 L 169.054688 108.835938 L 169.734375 108.734375 L 170.414062 108.640625 L 171.101562 108.550781 L 171.796875 108.46875 L 172.492188 108.394531 L 173.191406 108.324219 L 173.894531 108.257812 L 174.601562 108.203125 L 175.3125 108.152344 L 176.027344 108.109375 L 176.746094 108.074219 L 177.46875 108.042969 L 178.191406 108.023438 L 178.921875 108.007812 L 179.652344 108 L 180.386719 108 L 181.125 108.007812 L 181.867188 108.023438 L 182.609375 108.046875 L 183.355469 108.078125 L 184.105469 108.117188 L 184.859375 108.164062 L 185.613281 108.21875 L 186.371094 108.28125 L 187.128906 108.355469 L 187.890625 108.433594 L 188.652344 108.523438 L 189.417969 108.617188 L 190.183594 108.722656 L 190.949219 108.835938 L 191.71875 108.960938 L 192.488281 109.089844 L 193.261719 109.230469 L 194.035156 109.382812 L 194.808594 109.539062 L 195.582031 109.707031 L 196.359375 109.882812 L 197.132812 110.066406 L 197.910156 110.261719 L 198.683594 110.464844 L 199.460938 110.679688 L 200.238281 110.902344 L 201.011719 111.132812 L 201.785156 111.375 L 202.5625 111.625 L 203.335938 111.886719 L 204.105469 112.15625 L 204.878906 112.433594 L 205.648438 112.722656 L 206.417969 113.019531 L 207.183594 113.328125 L 207.949219 113.644531 L 208.710938 113.972656 L 209.472656 114.308594 L 210.230469 114.65625 L 210.988281 115.011719 L 211.742188 115.375 L 212.492188 115.75 L 213.238281 116.132812 L 213.984375 116.523438 L 214.726562 116.925781 L 215.464844 117.339844 L 216.195312 117.761719 L 216.925781 118.191406 L 217.652344 118.628906 L 218.375 119.078125 L 219.089844 119.535156 L 219.804688 120.003906 L 220.511719 120.480469 L 221.214844 120.964844 L 221.914062 121.457031 L 222.605469 121.960938 L 223.292969 122.46875 L 223.976562 122.988281 L 224.652344 123.515625 L 225.320312 124.054688 L 225.984375 124.597656 L 226.644531 125.152344 L 227.296875 125.710938 L 227.941406 126.28125 L 228.578125 126.859375 L 229.210938 127.441406 L 229.835938 128.035156 L 230.453125 128.632812 L 230.988281 129.011719 Z M 281.824219 78.175781 "/>
    <path style=" stroke:none;fill-rule:evenodd;fill:rgb(55.555047%,55.555047%,100%);fill-opacity:1;" d="M 324 180 C 324 189.546875 320.207031 198.703125 313.457031 205.457031 C 306.703125 212.207031 297.546875 216 288 216 C 278.453125 216 269.296875 212.207031 262.542969 205.457031 C 255.792969 198.703125 252 189.546875 252 180 C 252 170.453125 255.792969 161.296875 262.542969 154.542969 C 269.296875 147.792969 278.453125 144 288 144 C 297.546875 144 306.703125 147.792969 313.457031 154.542969 C 320.207031 161.296875 324 170.453125 324 180 Z M 324 180 "/>
  </g>
</svg>
